<svg xmlns="http://www.w3.org/2000/svg" version="1.1" viewBox="0 0 579 379">
<g stroke-width="2.00" fill="none" stroke-linecap="butt">
<path stroke="#999999" vector-effect="non-scaling-stroke" d="   M 186.35 135.72   Q 182.73 138.47 178.07 141.37   C 174.07 143.86 167.70 147.53 173.50 152.24   Q 175.89 154.17 185.99 160.52   Q 186.66 160.94 186.70 161.32   A 1.44 1.00 74.3 0 1 186.26 162.58   Q 179.87 166.74 173.93 170.66   C 170.21 173.11 170.52 177.15 174.09 179.46   Q 221.32 209.92 268.37 240.65   Q 275.74 245.46 283.42 249.75   C 286.84 251.66 288.18 251.60 291.34 249.58   Q 299.94 244.10 308.49 238.55   Q 348.67 212.44 388.82 186.30   Q 394.77 182.42 400.47 178.19   C 403.82 175.70 402.42 172.06 399.38 170.13   Q 393.40 166.33 387.13 162.29   A 0.63 0.63 0.0 0 1 386.99 161.35   Q 387.76 160.48 388.94 159.73   Q 395.19 155.81 400.81 151.06   C 405.60 147.02 397.90 143.46 395.51 141.18   C 393.24 139.02 389.90 137.60 387.18 135.84   A 0.90 0.90 0.0 0 1 387.20 134.32   Q 387.75 133.99 388.61 133.41   Q 393.64 130.04 398.66 126.65   C 401.89 124.46 404.82 120.91 400.20 117.79   C 363.71 93.19 326.40 69.74 289.41 45.91   C 286.16 43.83 281.40 47.53 278.72 49.27   Q 227.36 82.53 175.93 115.70   C 172.17 118.12 168.82 122.19 173.49 125.49   Q 179.45 129.71 186.28 134.05   Q 187.53 134.83 186.35 135.72"/>
<path stroke="#999999" vector-effect="non-scaling-stroke" d="   M 76.09 337.83   Q 76.23 336.68 77.17 337.36   Q 84.52 342.68 91.77 342.40   C 112.13 341.60 115.88 310.28 105.41 297.99   C 97.78 289.02 85.74 291.42 77.54 298.50   A 0.30 0.29 -20.3 0 1 77.05 298.28   L 77.33 271.29   Q 77.33 271.00 77.04 271.00   L 69.30 271.01   A 0.30 0.30 0.0 0 0 69.00 271.31   L 69.00 340.75   Q 69.00 341.50 69.75 341.50   L 74.94 341.50   Q 75.63 341.49 75.71 340.81   L 76.09 337.83"/>
<path stroke="#999999" vector-effect="non-scaling-stroke" d="   M 259.08 298.21   L 259.32 271.29   Q 259.32 271.00 259.04 271.00   L 251.25 271.01   A 0.25 0.24 -0.0 0 0 251.00 271.25   L 251.00 340.50   Q 251.00 341.50 252.00 341.50   L 256.52 341.50   Q 257.55 341.50 257.72 340.48   L 258.28 337.02   A 0.32 0.32 0.0 0 1 258.80 336.83   C 264.16 341.34 270.31 343.75 277.26 341.92   C 294.49 337.37 297.76 309.02 287.20 297.55   C 281.72 291.61 272.69 290.74 265.60 294.33   Q 263.93 295.17 259.53 298.44   Q 259.08 298.78 259.08 298.21"/>
<path stroke="#999999" vector-effect="non-scaling-stroke" d="   M 395.14 296.75   Q 395.14 297.42 394.61 297.01   C 385.21 289.78 373.21 290.74 366.32 300.31   C 360.04 309.03 359.22 323.85 364.53 333.24   C 370.20 343.24 383.45 345.58 392.30 338.27   Q 393.67 337.15 395.22 336.07   Q 395.81 335.66 395.88 336.38   L 396.37 341.14   Q 396.40 341.49 396.76 341.49   L 403.00 341.50   A 0.25 0.25 0.0 0 0 403.25 341.25   L 403.25 271.25   A 0.25 0.25 0.0 0 0 403.00 271.00   L 395.22 271.01   Q 394.94 271.01 394.95 271.28   L 395.14 296.75"/>
<path stroke="#999999" vector-effect="non-scaling-stroke" d="   M 350.0500 278.2598   A 5.68 5.26 0.2 0 0 344.3884 272.9800   A 5.68 5.26 0.2 0 0 338.6900 278.2202   A 5.68 5.26 0.2 0 0 344.3516 283.5000   A 5.68 5.26 0.2 0 0 350.0500 278.2598"/>
<path stroke="#999999" vector-effect="non-scaling-stroke" d="   M 170.93 300.46   Q 171.07 313.61 171.20 326.75   Q 171.25 331.40 171.77 333.26   C 174.64 343.49 185.14 344.16 193.47 340.81   Q 193.71 340.71 193.64 340.47   L 192.15 335.03   Q 192.08 334.76 191.81 334.84   C 180.51 338.58 179.29 332.39 179.26 323.23   Q 179.22 311.88 179.26 300.49   Q 179.27 300.00 179.76 300.00   L 191.75 300.00   A 0.50 0.50 0.0 0 0 192.25 299.50   L 192.25 293.75   A 0.50 0.50 0.0 0 0 191.75 293.25   L 179.75 293.25   Q 179.25 293.25 179.25 292.75   L 179.25 280.50   Q 179.25 280.00 178.75 280.00   L 172.71 280.00   A 0.35 0.35 0.0 0 0 172.36 280.33   L 171.46 292.99   Q 171.43 293.41 171.01 293.43   L 164.23 293.79   Q 164.00 293.80 164.00 294.02   L 164.00 299.75   Q 164.00 300.00 164.25 300.00   L 170.47 300.00   Q 170.93 300.00 170.93 300.46"/>
<path stroke="#999999" vector-effect="non-scaling-stroke" d="   M 207.04 319.25   L 238.46 319.25   Q 238.85 319.25 238.91 318.86   Q 240.08 310.22 237.53 303.93   C 232.96 292.68 220.97 289.19 210.51 294.66   C 198.84 300.77 196.15 317.24 200.49 328.33   C 206.43 343.49 223.89 346.25 236.56 338.02   Q 237.33 337.51 236.89 336.70   L 234.86 333.04   Q 234.41 332.23 233.65 332.75   C 224.99 338.55 212.24 336.90 208.16 326.38   Q 206.91 323.16 206.62 319.71   Q 206.58 319.25 207.04 319.25"/>
<path stroke="#999999" vector-effect="non-scaling-stroke" d="   M 313.29 301.27   L 312.67 293.45   Q 312.66 293.25 312.45 293.25   L 306.25 293.26   A 0.25 0.25 0.0 0 0 306.00 293.51   L 306.00 341.25   A 0.25 0.25 0.0 0 0 306.25 341.50   L 313.73 341.50   A 0.27 0.27 0.0 0 0 314.00 341.23   Q 313.99 327.39 314.01 313.26   C 314.02 304.93 322.05 297.49 330.35 300.13   Q 330.86 300.29 330.97 299.77   L 332.35 293.57   Q 332.45 293.10 332.00 292.96   C 323.23 290.32 318.57 294.79 313.90 301.43   Q 313.37 302.19 313.29 301.27"/>
<path stroke="#999999" vector-effect="non-scaling-stroke" d="   M 449.81 299.50   L 458.75 299.50   Q 459.00 299.50 459.00 299.25   L 458.99 293.53   Q 458.99 293.26 458.72 293.26   Q 452.07 293.24 445.20 293.25   Q 443.37 293.26 439.38 292.55   C 429.87 290.86 420.07 295.59 417.97 305.44   Q 416.18 313.91 423.24 322.10   Q 423.73 322.67 423.12 323.11   C 417.45 327.26 416.63 334.74 422.48 339.18   Q 422.90 339.51 422.50 339.86   Q 421.19 341.02 419.90 342.14   C 413.37 347.80 414.72 356.83 422.27 360.73   C 433.21 366.39 455.65 363.99 459.54 350.03   C 462.00 341.17 455.04 336.01 447.12 335.61   Q 442.17 335.37 432.75 335.30   Q 430.01 335.29 428.33 334.67   C 423.99 333.07 424.76 327.44 428.13 324.91   Q 428.48 324.65 428.89 324.79   Q 437.36 327.77 444.29 324.10   C 453.59 319.17 455.90 308.51 449.63 299.85   Q 449.38 299.50 449.81 299.50"/>
<path stroke="#999999" vector-effect="non-scaling-stroke" d="   M 472.78 319.25   L 504.20 319.25   Q 504.53 319.25 504.58 318.91   Q 506.12 308.56 501.82 300.99   C 495.77 290.34 481.29 289.62 472.60 297.27   C 462.45 306.20 461.44 324.43 469.82 334.68   C 477.90 344.56 492.49 344.64 502.83 337.67   Q 503.06 337.51 502.93 337.27   L 500.31 332.51   Q 500.16 332.25 499.91 332.41   C 487.82 340.36 473.44 335.08 472.37 319.70   Q 472.34 319.25 472.78 319.25"/>
<path stroke="#999999" vector-effect="non-scaling-stroke" d="   M 139.41 332.96   L 125.09 293.48   Q 125.00 293.25 124.76 293.25   L 116.72 293.25   Q 116.55 293.25 116.61 293.41   L 135.66 341.04   Q 135.83 341.45 135.72 341.88   C 133.91 349.12 129.81 357.47 120.61 354.74   A 0.35 0.35 0.0 0 0 120.17 354.99   L 118.73 360.76   A 0.42 0.41 -74.8 0 0 119.01 361.26   C 131.79 364.99 138.59 355.83 142.28 345.25   Q 151.28 319.51 160.33 293.46   A 0.16 0.15 9.3 0 0 160.18 293.26   L 152.67 293.25   Q 152.42 293.25 152.34 293.49   L 139.86 332.95   Q 139.65 333.61 139.41 332.96"/>
<path stroke="#999999" vector-effect="non-scaling-stroke" d="   M 348.25 293.55   A 0.29 0.29 0.0 0 0 347.96 293.26   L 340.54 293.26   A 0.29 0.29 0.0 0 0 340.25 293.55   L 340.25 341.21   A 0.29 0.29 0.0 0 0 340.54 341.50   L 347.96 341.50   A 0.29 0.29 0.0 0 0 348.25 341.21   L 348.25 293.55"/>
<path stroke="#999999" vector-effect="non-scaling-stroke" d="   M 290.18 72.58   Q 321.62 93.25 373.14 126.60   C 375.62 128.20 377.00 129.47 379.47 127.73   Q 383.72 124.74 387.84 122.15   A 0.76 0.75 45.3 0 0 387.84 120.87   L 288.61 56.76   A 3.22 3.20 -44.9 0 0 285.12 56.76   L 186.20 120.78   A 0.84 0.83 45.6 0 0 186.19 122.17   L 194.34 127.72   A 4.19 4.19 0.0 0 0 198.99 127.76   C 227.21 109.29 255.47 90.40 284.22 72.42   Q 287.15 70.59 290.18 72.58"/>
<path stroke="#999999" vector-effect="non-scaling-stroke" d="   M 387.60 148.84   Q 388.69 148.13 387.60 147.42   L 289.16 83.71   A 4.16 4.14 -44.9 0 0 284.65 83.71   L 207.11 133.85   Q 206.25 134.40 206.68 135.32   Q 206.82 135.64 207.73 136.26   Q 211.77 139.02 215.87 141.56   A 2.57 2.57 0.0 0 0 218.61 141.53   Q 248.94 121.98 278.51 102.73   C 281.70 100.65 286.63 97.11 290.26 99.48   Q 331.99 126.66 375.06 154.43   Q 377.03 155.70 379.01 154.42   L 387.60 148.84"/>
<path stroke="#999999" vector-effect="non-scaling-stroke" d="   M 287.56 109.28   A 1.24 1.23 -44.7 0 0 286.21 109.28   L 227.25 147.46   A 1.01 0.80 68.0 0 0 226.95 148.49   Q 227.02 148.74 227.60 149.12   Q 254.49 166.29 281.03 184.00   C 284.40 186.25 287.83 187.42 291.23 185.17   Q 318.10 167.39 345.21 149.97   Q 346.17 149.36 346.79 148.78   A 0.65 0.64 -49.7 0 0 346.71 147.77   L 287.56 109.28"/>
<path stroke="#999999" vector-effect="non-scaling-stroke" d="   M 366.66 160.57   L 357.89 154.72   A 2.05 2.05 0.0 0 0 355.64 154.70   Q 323.43 175.69 290.64 196.56   Q 286.36 199.29 282.56 196.68   Q 278.12 193.62 273.59 190.71   Q 235.82 166.43 198.67 142.06   A 3.70 3.70 0.0 0 0 194.60 142.08   L 186.06 147.79   A 0.87 0.87 0.0 0 0 186.07 149.25   Q 235.71 181.16 284.32 212.69   Q 286.84 214.33 289.51 212.57   Q 313.22 197.00 361.86 165.92   Q 364.62 164.16 366.78 162.16   A 1.02 1.01 40.7 0 0 366.66 160.57"/>
<path stroke="#999999" vector-effect="non-scaling-stroke" d="   M 374.26 184.11   C 377.83 181.74 383.46 178.45 387.83 175.22   A 0.68 0.67 -46.3 0 0 387.81 174.12   L 379.69 168.67   A 4.27 4.26 -44.5 0 0 375.00 168.64   C 347.38 186.67 319.81 205.08 291.77 222.67   C 289.24 224.26 286.25 225.54 283.81 223.95   Q 241.24 196.23 198.43 168.38   A 2.81 2.79 -44.9 0 0 195.38 168.38   L 186.74 173.98   Q 185.15 175.01 186.74 176.04   Q 235.49 207.54 283.81 239.26   Q 286.54 241.05 289.56 239.06   Q 310.04 225.52 331.85 211.68   A 7.99 0.53 -31.9 0 0 332.80 211.08   Q 340.45 206.17 348.08 201.12   C 348.49 200.85 348.93 200.79 349.43 200.46   Q 361.88 192.34 374.26 184.11"/>
<path stroke="#999999" vector-effect="non-scaling-stroke" d="   M 97.08 301.18   C 90.55 296.29 82.53 300.39 77.58 305.23   A 1.09 1.09 0.0 0 0 77.25 306.01   L 77.25 330.24   Q 77.25 330.71 77.60 331.02   C 83.76 336.57 93.73 338.04 99.00 330.25   C 103.76 323.21 104.70 306.89 97.08 301.18"/>
<path stroke="#999999" vector-effect="non-scaling-stroke" d="   M 278.91 301.06   C 272.87 296.35 264.65 300.32 259.56 305.29   Q 259.25 305.59 259.25 306.02   L 259.25 330.07   A 1.15 1.14 21.4 0 0 259.62 330.91   C 267.05 337.78 278.12 337.62 282.57 327.53   C 285.89 320.01 285.96 306.56 278.91 301.06"/>
<path stroke="#999999" vector-effect="non-scaling-stroke" d="   M 394.59 303.74   C 389.03 298.34 380.48 297.00 374.70 302.92   C 369.26 308.51 368.71 316.98 370.27 324.49   C 373.08 338.00 386.65 338.96 394.69 329.34   Q 395.00 328.97 395.00 328.49   L 395.00 304.72   A 1.38 1.36 -68.2 0 0 394.59 303.74"/>
<path stroke="#999999" vector-effect="non-scaling-stroke" d="   M 207.27 313.84   L 232.13 313.66   A 0.29 0.29 0.0 0 0 232.42 313.37   L 232.42 313.12   A 14.60 12.49 89.6 0 0 219.83 298.61   L 219.37 298.61   A 14.60 12.49 89.6 0 0 206.98 313.30   L 206.98 313.55   A 0.29 0.29 0.0 0 0 207.27 313.84"/>
<path stroke="#999999" vector-effect="non-scaling-stroke" d="   M 435.6295 320.7198   A 11.37 10.29 89.7 0 0 445.8599 309.2961   A 11.37 10.29 89.7 0 0 435.5105 297.9802   A 11.37 10.29 89.7 0 0 425.2801 309.4039   A 11.37 10.29 89.7 0 0 435.6295 320.7198"/>
<path stroke="#999999" vector-effect="non-scaling-stroke" d="   M 427.30 341.88   C 420.81 346.44 421.39 354.36 429.40 356.75   C 436.08 358.75 446.54 358.36 450.85 351.87   Q 454.17 346.85 449.60 343.57   C 448.06 342.46 444.63 342.16 442.73 342.24   Q 435.41 342.55 428.16 341.66   Q 427.69 341.60 427.30 341.88"/>
<path stroke="#999999" vector-effect="non-scaling-stroke" d="   M 497.76 313.25   C 498.54 292.96 473.88 294.70 472.29 313.24   Q 472.25 313.75 472.76 313.75   L 497.24 313.75   Q 497.74 313.75 497.76 313.25"/>
</g>
<g fill="#ffffff">
<path d="   M 0.00 0.00   L 579.00 0.00   L 579.00 379.00   L 0.00 379.00   L 0.00 0.00   Z   M 186.35 135.72   Q 182.73 138.47 178.07 141.37   C 174.07 143.86 167.70 147.53 173.50 152.24   Q 175.89 154.17 185.99 160.52   Q 186.66 160.94 186.70 161.32   A 1.44 1.00 74.3 0 1 186.26 162.58   Q 179.87 166.74 173.93 170.66   C 170.21 173.11 170.52 177.15 174.09 179.46   Q 221.32 209.92 268.37 240.65   Q 275.74 245.46 283.42 249.75   C 286.84 251.66 288.18 251.60 291.34 249.58   Q 299.94 244.10 308.49 238.55   Q 348.67 212.44 388.82 186.30   Q 394.77 182.42 400.47 178.19   C 403.82 175.70 402.42 172.06 399.38 170.13   Q 393.40 166.33 387.13 162.29   A 0.63 0.63 0.0 0 1 386.99 161.35   Q 387.76 160.48 388.94 159.73   Q 395.19 155.81 400.81 151.06   C 405.60 147.02 397.90 143.46 395.51 141.18   C 393.24 139.02 389.90 137.60 387.18 135.84   A 0.90 0.90 0.0 0 1 387.20 134.32   Q 387.75 133.99 388.61 133.41   Q 393.64 130.04 398.66 126.65   C 401.89 124.46 404.82 120.91 400.20 117.79   C 363.71 93.19 326.40 69.74 289.41 45.91   C 286.16 43.83 281.40 47.53 278.72 49.27   Q 227.36 82.53 175.93 115.70   C 172.17 118.12 168.82 122.19 173.49 125.49   Q 179.45 129.71 186.28 134.05   Q 187.53 134.83 186.35 135.72   Z   M 76.09 337.83   Q 76.23 336.68 77.17 337.36   Q 84.52 342.68 91.77 342.40   C 112.13 341.60 115.88 310.28 105.41 297.99   C 97.78 289.02 85.74 291.42 77.54 298.50   A 0.30 0.29 -20.3 0 1 77.05 298.28   L 77.33 271.29   Q 77.33 271.00 77.04 271.00   L 69.30 271.01   A 0.30 0.30 0.0 0 0 69.00 271.31   L 69.00 340.75   Q 69.00 341.50 69.75 341.50   L 74.94 341.50   Q 75.63 341.49 75.71 340.81   L 76.09 337.83   Z   M 259.08 298.21   L 259.32 271.29   Q 259.32 271.00 259.04 271.00   L 251.25 271.01   A 0.25 0.24 -0.0 0 0 251.00 271.25   L 251.00 340.50   Q 251.00 341.50 252.00 341.50   L 256.52 341.50   Q 257.55 341.50 257.72 340.48   L 258.28 337.02   A 0.32 0.32 0.0 0 1 258.80 336.83   C 264.16 341.34 270.31 343.75 277.26 341.92   C 294.49 337.37 297.76 309.02 287.20 297.55   C 281.72 291.61 272.69 290.74 265.60 294.33   Q 263.93 295.17 259.53 298.44   Q 259.08 298.78 259.08 298.21   Z   M 395.14 296.75   Q 395.14 297.42 394.61 297.01   C 385.21 289.78 373.21 290.74 366.32 300.31   C 360.04 309.03 359.22 323.85 364.53 333.24   C 370.20 343.24 383.45 345.58 392.30 338.27   Q 393.67 337.15 395.22 336.07   Q 395.81 335.66 395.88 336.38   L 396.37 341.14   Q 396.40 341.49 396.76 341.49   L 403.00 341.50   A 0.25 0.25 0.0 0 0 403.25 341.25   L 403.25 271.25   A 0.25 0.25 0.0 0 0 403.00 271.00   L 395.22 271.01   Q 394.94 271.01 394.95 271.28   L 395.14 296.75   Z   M 350.0500 278.2598   A 5.68 5.26 0.2 0 0 344.3884 272.9800   A 5.68 5.26 0.2 0 0 338.6900 278.2202   A 5.68 5.26 0.2 0 0 344.3516 283.5000   A 5.68 5.26 0.2 0 0 350.0500 278.2598   Z   M 170.93 300.46   Q 171.07 313.61 171.20 326.75   Q 171.25 331.40 171.77 333.26   C 174.64 343.49 185.14 344.16 193.47 340.81   Q 193.71 340.71 193.64 340.47   L 192.15 335.03   Q 192.08 334.76 191.81 334.84   C 180.51 338.58 179.29 332.39 179.26 323.23   Q 179.22 311.88 179.26 300.49   Q 179.27 300.00 179.76 300.00   L 191.75 300.00   A 0.50 0.50 0.0 0 0 192.25 299.50   L 192.25 293.75   A 0.50 0.50 0.0 0 0 191.75 293.25   L 179.75 293.25   Q 179.25 293.25 179.25 292.75   L 179.25 280.50   Q 179.25 280.00 178.75 280.00   L 172.71 280.00   A 0.35 0.35 0.0 0 0 172.36 280.33   L 171.46 292.99   Q 171.43 293.41 171.01 293.43   L 164.23 293.79   Q 164.00 293.80 164.00 294.02   L 164.00 299.75   Q 164.00 300.00 164.25 300.00   L 170.47 300.00   Q 170.93 300.00 170.93 300.46   Z   M 207.04 319.25   L 238.46 319.25   Q 238.85 319.25 238.91 318.86   Q 240.08 310.22 237.53 303.93   C 232.96 292.68 220.97 289.19 210.51 294.66   C 198.84 300.77 196.15 317.24 200.49 328.33   C 206.43 343.49 223.89 346.25 236.56 338.02   Q 237.33 337.51 236.89 336.70   L 234.86 333.04   Q 234.41 332.23 233.65 332.75   C 224.99 338.55 212.24 336.90 208.16 326.38   Q 206.91 323.16 206.62 319.71   Q 206.58 319.25 207.04 319.25   Z   M 313.29 301.27   L 312.67 293.45   Q 312.66 293.25 312.45 293.25   L 306.25 293.26   A 0.25 0.25 0.0 0 0 306.00 293.51   L 306.00 341.25   A 0.25 0.25 0.0 0 0 306.25 341.50   L 313.73 341.50   A 0.27 0.27 0.0 0 0 314.00 341.23   Q 313.99 327.39 314.01 313.26   C 314.02 304.93 322.05 297.49 330.35 300.13   Q 330.86 300.29 330.97 299.77   L 332.35 293.57   Q 332.45 293.10 332.00 292.96   C 323.23 290.32 318.57 294.79 313.90 301.43   Q 313.37 302.19 313.29 301.27   Z   M 449.81 299.50   L 458.75 299.50   Q 459.00 299.50 459.00 299.25   L 458.99 293.53   Q 458.99 293.26 458.72 293.26   Q 452.07 293.24 445.20 293.25   Q 443.37 293.26 439.38 292.55   C 429.87 290.86 420.07 295.59 417.97 305.44   Q 416.18 313.91 423.24 322.10   Q 423.73 322.67 423.12 323.11   C 417.45 327.26 416.63 334.74 422.48 339.18   Q 422.90 339.51 422.50 339.86   Q 421.19 341.02 419.90 342.14   C 413.37 347.80 414.72 356.83 422.27 360.73   C 433.21 366.39 455.65 363.99 459.54 350.03   C 462.00 341.17 455.04 336.01 447.12 335.61   Q 442.17 335.37 432.75 335.30   Q 430.01 335.29 428.33 334.67   C 423.99 333.07 424.76 327.44 428.13 324.91   Q 428.48 324.65 428.89 324.79   Q 437.36 327.77 444.29 324.10   C 453.59 319.17 455.90 308.51 449.63 299.85   Q 449.38 299.50 449.81 299.50   Z   M 472.78 319.25   L 504.20 319.25   Q 504.53 319.25 504.58 318.91   Q 506.12 308.56 501.82 300.99   C 495.77 290.34 481.29 289.62 472.60 297.27   C 462.45 306.20 461.44 324.43 469.82 334.68   C 477.90 344.56 492.49 344.64 502.83 337.67   Q 503.06 337.51 502.93 337.27   L 500.31 332.51   Q 500.16 332.25 499.91 332.41   C 487.82 340.36 473.44 335.08 472.37 319.70   Q 472.34 319.25 472.78 319.25   Z   M 139.41 332.96   L 125.09 293.48   Q 125.00 293.25 124.76 293.25   L 116.72 293.25   Q 116.55 293.25 116.61 293.41   L 135.66 341.04   Q 135.83 341.45 135.72 341.88   C 133.91 349.12 129.81 357.47 120.61 354.74   A 0.35 0.35 0.0 0 0 120.17 354.99   L 118.73 360.76   A 0.42 0.41 -74.8 0 0 119.01 361.26   C 131.79 364.99 138.59 355.83 142.28 345.25   Q 151.28 319.51 160.33 293.46   A 0.16 0.15 9.3 0 0 160.18 293.26   L 152.67 293.25   Q 152.42 293.25 152.34 293.49   L 139.86 332.95   Q 139.65 333.61 139.41 332.96   Z   M 348.25 293.55   A 0.29 0.29 0.0 0 0 347.96 293.26   L 340.54 293.26   A 0.29 0.29 0.0 0 0 340.25 293.55   L 340.25 341.21   A 0.29 0.29 0.0 0 0 340.54 341.50   L 347.96 341.50   A 0.29 0.29 0.0 0 0 348.25 341.21   L 348.25 293.55   Z"/>
<path d="   M 290.18 72.58   Q 287.15 70.59 284.22 72.42   C 255.47 90.40 227.21 109.29 198.99 127.76   A 4.19 4.19 0.0 0 1 194.34 127.72   L 186.19 122.17   A 0.84 0.83 45.6 0 1 186.20 120.78   L 285.12 56.76   A 3.22 3.20 -44.9 0 1 288.61 56.76   L 387.84 120.87   A 0.76 0.75 45.3 0 1 387.84 122.15   Q 383.72 124.74 379.47 127.73   C 377.00 129.47 375.62 128.20 373.14 126.60   Q 321.62 93.25 290.18 72.58   Z"/>
<path d="   M 387.60 148.84   L 379.01 154.42   Q 377.03 155.70 375.06 154.43   Q 331.99 126.66 290.26 99.48   C 286.63 97.11 281.70 100.65 278.51 102.73   Q 248.94 121.98 218.61 141.53   A 2.57 2.57 0.0 0 1 215.87 141.56   Q 211.77 139.02 207.73 136.26   Q 206.82 135.64 206.68 135.32   Q 206.25 134.40 207.11 133.85   L 284.65 83.71   A 4.16 4.14 -44.9 0 1 289.16 83.71   L 387.60 147.42   Q 388.69 148.13 387.60 148.84   Z"/>
<path d="   M 287.56 109.28   L 346.71 147.77   A 0.65 0.64 -49.7 0 1 346.79 148.78   Q 346.17 149.36 345.21 149.97   Q 318.10 167.39 291.23 185.17   C 287.83 187.42 284.40 186.25 281.03 184.00   Q 254.49 166.29 227.60 149.12   Q 227.02 148.74 226.95 148.49   A 1.01 0.80 68.0 0 1 227.25 147.46   L 286.21 109.28   A 1.24 1.23 -44.7 0 1 287.56 109.28   Z"/>
<path d="   M 366.66 160.57   A 1.02 1.01 40.7 0 1 366.78 162.16   Q 364.62 164.16 361.86 165.92   Q 313.22 197.00 289.51 212.57   Q 286.84 214.33 284.32 212.69   Q 235.71 181.16 186.07 149.25   A 0.87 0.87 0.0 0 1 186.06 147.79   L 194.60 142.08   A 3.70 3.70 0.0 0 1 198.67 142.06   Q 235.82 166.43 273.59 190.71   Q 278.12 193.62 282.56 196.68   Q 286.36 199.29 290.64 196.56   Q 323.43 175.69 355.64 154.70   A 2.05 2.05 0.0 0 1 357.89 154.72   L 366.66 160.57   Z"/>
<path d="   M 374.26 184.11   Q 361.88 192.34 349.43 200.46   C 348.93 200.79 348.49 200.85 348.08 201.12   Q 340.45 206.17 332.80 211.08   A 7.99 0.53 -31.9 0 1 331.85 211.68   Q 310.04 225.52 289.56 239.06   Q 286.54 241.05 283.81 239.26   Q 235.49 207.54 186.74 176.04   Q 185.15 175.01 186.74 173.98   L 195.38 168.38   A 2.81 2.79 -44.9 0 1 198.43 168.38   Q 241.24 196.23 283.81 223.95   C 286.25 225.54 289.24 224.26 291.77 222.67   C 319.81 205.08 347.38 186.67 375.00 168.64   A 4.27 4.26 -44.5 0 1 379.69 168.67   L 387.81 174.12   A 0.68 0.67 -46.3 0 1 387.83 175.22   C 383.46 178.45 377.83 181.74 374.26 184.11   Z"/>
<ellipse cx="0.00" cy="0.00" transform="translate(435.57,309.35) rotate(89.7)" rx="11.37" ry="10.29"/>
<path d="   M 207.27 313.84   A 0.29 0.29 0.0 0 1 206.98 313.55   L 206.98 313.30   A 14.60 12.49 89.6 0 1 219.37 298.61   L 219.83 298.61   A 14.60 12.49 89.6 0 1 232.42 313.12   L 232.42 313.37   A 0.29 0.29 0.0 0 1 232.13 313.66   L 207.27 313.84   Z"/>
<path d="   M 472.29 313.24   C 473.88 294.70 498.54 292.96 497.76 313.25   Q 497.74 313.75 497.24 313.75   L 472.76 313.75   Q 472.25 313.75 472.29 313.24   Z"/>
<path d="   M 77.58 305.23   C 82.53 300.39 90.55 296.29 97.08 301.18   C 104.70 306.89 103.76 323.21 99.00 330.25   C 93.73 338.04 83.76 336.57 77.60 331.02   Q 77.25 330.71 77.25 330.24   L 77.25 306.01   A 1.09 1.09 0.0 0 1 77.58 305.23   Z"/>
<path d="   M 278.91 301.06   C 285.96 306.56 285.89 320.01 282.57 327.53   C 278.12 337.62 267.05 337.78 259.62 330.91   A 1.15 1.14 21.4 0 1 259.25 330.07   L 259.25 306.02   Q 259.25 305.59 259.56 305.29   C 264.65 300.32 272.87 296.35 278.91 301.06   Z"/>
<path d="   M 374.70 302.92   C 380.48 297.00 389.03 298.34 394.59 303.74   A 1.38 1.36 -68.2 0 1 395.00 304.72   L 395.00 328.49   Q 395.00 328.97 394.69 329.34   C 386.65 338.96 373.08 338.00 370.27 324.49   C 368.71 316.98 369.26 308.51 374.70 302.92   Z"/>
<path d="   M 429.40 356.75   C 421.39 354.36 420.81 346.44 427.30 341.88   Q 427.69 341.60 428.16 341.66   Q 435.41 342.55 442.73 342.24   C 444.63 342.16 448.06 342.46 449.60 343.57   Q 454.17 346.85 450.85 351.87   C 446.54 358.36 436.08 358.75 429.40 356.75   Z"/>
</g>
<g fill="#323232">
<path d="   M 186.35 135.72   Q 187.53 134.83 186.28 134.05   Q 179.45 129.71 173.49 125.49   C 168.82 122.19 172.17 118.12 175.93 115.70   Q 227.36 82.53 278.72 49.27   C 281.40 47.53 286.16 43.83 289.41 45.91   C 326.40 69.74 363.71 93.19 400.20 117.79   C 404.82 120.91 401.89 124.46 398.66 126.65   Q 393.64 130.04 388.61 133.41   Q 387.75 133.99 387.20 134.32   A 0.90 0.90 0.0 0 0 387.18 135.84   C 389.90 137.60 393.24 139.02 395.51 141.18   C 397.90 143.46 405.60 147.02 400.81 151.06   Q 395.19 155.81 388.94 159.73   Q 387.76 160.48 386.99 161.35   A 0.63 0.63 0.0 0 0 387.13 162.29   Q 393.40 166.33 399.38 170.13   C 402.42 172.06 403.82 175.70 400.47 178.19   Q 394.77 182.42 388.82 186.30   Q 348.67 212.44 308.49 238.55   Q 299.94 244.10 291.34 249.58   C 288.18 251.60 286.84 251.66 283.42 249.75   Q 275.74 245.46 268.37 240.65   Q 221.32 209.92 174.09 179.46   C 170.52 177.15 170.21 173.11 173.93 170.66   Q 179.87 166.74 186.26 162.58   A 1.44 1.00 74.3 0 0 186.70 161.32   Q 186.66 160.94 185.99 160.52   Q 175.89 154.17 173.50 152.24   C 167.70 147.53 174.07 143.86 178.07 141.37   Q 182.73 138.47 186.35 135.72   Z   M 290.18 72.58   Q 321.62 93.25 373.14 126.60   C 375.62 128.20 377.00 129.47 379.47 127.73   Q 383.72 124.74 387.84 122.15   A 0.76 0.75 45.3 0 0 387.84 120.87   L 288.61 56.76   A 3.22 3.20 -44.9 0 0 285.12 56.76   L 186.20 120.78   A 0.84 0.83 45.6 0 0 186.19 122.17   L 194.34 127.72   A 4.19 4.19 0.0 0 0 198.99 127.76   C 227.21 109.29 255.47 90.40 284.22 72.42   Q 287.15 70.59 290.18 72.58   Z   M 387.60 148.84   Q 388.69 148.13 387.60 147.42   L 289.16 83.71   A 4.16 4.14 -44.9 0 0 284.65 83.71   L 207.11 133.85   Q 206.25 134.40 206.68 135.32   Q 206.82 135.64 207.73 136.26   Q 211.77 139.02 215.87 141.56   A 2.57 2.57 0.0 0 0 218.61 141.53   Q 248.94 121.98 278.51 102.73   C 281.70 100.65 286.63 97.11 290.26 99.48   Q 331.99 126.66 375.06 154.43   Q 377.03 155.70 379.01 154.42   L 387.60 148.84   Z   M 287.56 109.28   A 1.24 1.23 -44.7 0 0 286.21 109.28   L 227.25 147.46   A 1.01 0.80 68.0 0 0 226.95 148.49   Q 227.02 148.74 227.60 149.12   Q 254.49 166.29 281.03 184.00   C 284.40 186.25 287.83 187.42 291.23 185.17   Q 318.10 167.39 345.21 149.97   Q 346.17 149.36 346.79 148.78   A 0.65 0.64 -49.7 0 0 346.71 147.77   L 287.56 109.28   Z   M 366.66 160.57   L 357.89 154.72   A 2.05 2.05 0.0 0 0 355.64 154.70   Q 323.43 175.69 290.64 196.56   Q 286.36 199.29 282.56 196.68   Q 278.12 193.62 273.59 190.71   Q 235.82 166.43 198.67 142.06   A 3.70 3.70 0.0 0 0 194.60 142.08   L 186.06 147.79   A 0.87 0.87 0.0 0 0 186.07 149.25   Q 235.71 181.16 284.32 212.69   Q 286.84 214.33 289.51 212.57   Q 313.22 197.00 361.86 165.92   Q 364.62 164.16 366.78 162.16   A 1.02 1.01 40.7 0 0 366.66 160.57   Z   M 374.26 184.11   C 377.83 181.74 383.46 178.45 387.83 175.22   A 0.68 0.67 -46.3 0 0 387.81 174.12   L 379.69 168.67   A 4.27 4.26 -44.5 0 0 375.00 168.64   C 347.38 186.67 319.81 205.08 291.77 222.67   C 289.24 224.26 286.25 225.54 283.81 223.95   Q 241.24 196.23 198.43 168.38   A 2.81 2.79 -44.9 0 0 195.38 168.38   L 186.74 173.98   Q 185.15 175.01 186.74 176.04   Q 235.49 207.54 283.81 239.26   Q 286.54 241.05 289.56 239.06   Q 310.04 225.52 331.85 211.68   A 7.99 0.53 -31.9 0 0 332.80 211.08   Q 340.45 206.17 348.08 201.12   C 348.49 200.85 348.93 200.79 349.43 200.46   Q 361.88 192.34 374.26 184.11   Z"/>
<path d="   M 76.09 337.83   L 75.71 340.81   Q 75.63 341.49 74.94 341.50   L 69.75 341.50   Q 69.00 341.50 69.00 340.75   L 69.00 271.31   A 0.30 0.30 0.0 0 1 69.30 271.01   L 77.04 271.00   Q 77.33 271.00 77.33 271.29   L 77.05 298.28   A 0.30 0.29 -20.3 0 0 77.54 298.50   C 85.74 291.42 97.78 289.02 105.41 297.99   C 115.88 310.28 112.13 341.60 91.77 342.40   Q 84.52 342.68 77.17 337.36   Q 76.23 336.68 76.09 337.83   Z   M 97.08 301.18   C 90.55 296.29 82.53 300.39 77.58 305.23   A 1.09 1.09 0.0 0 0 77.25 306.01   L 77.25 330.24   Q 77.25 330.71 77.60 331.02   C 83.76 336.57 93.73 338.04 99.00 330.25   C 103.76 323.21 104.70 306.89 97.08 301.18   Z"/>
<path d="   M 259.53 298.44   Q 263.93 295.17 265.60 294.33   C 272.69 290.74 281.72 291.61 287.20 297.55   C 297.76 309.02 294.49 337.37 277.26 341.92   C 270.31 343.75 264.16 341.34 258.80 336.83   A 0.32 0.32 0.0 0 0 258.28 337.02   L 257.72 340.48   Q 257.55 341.50 256.52 341.50   L 252.00 341.50   Q 251.00 341.50 251.00 340.50   L 251.00 271.25   A 0.25 0.24 -0.0 0 1 251.25 271.01   L 259.04 271.00   Q 259.32 271.00 259.32 271.29   L 259.08 298.21   Q 259.08 298.78 259.53 298.44   Z   M 278.91 301.06   C 272.87 296.35 264.65 300.32 259.56 305.29   Q 259.25 305.59 259.25 306.02   L 259.25 330.07   A 1.15 1.14 21.4 0 0 259.62 330.91   C 267.05 337.78 278.12 337.62 282.57 327.53   C 285.89 320.01 285.96 306.56 278.91 301.06   Z"/>
<path d="   M 395.14 296.75   L 394.95 271.28   Q 394.94 271.01 395.22 271.01   L 403.00 271.00   A 0.25 0.25 0.0 0 1 403.25 271.25   L 403.25 341.25   A 0.25 0.25 0.0 0 1 403.00 341.50   L 396.76 341.49   Q 396.40 341.49 396.37 341.14   L 395.88 336.38   Q 395.81 335.66 395.22 336.07   Q 393.67 337.15 392.30 338.27   C 383.45 345.58 370.20 343.24 364.53 333.24   C 359.22 323.85 360.04 309.03 366.32 300.31   C 373.21 290.74 385.21 289.78 394.61 297.01   Q 395.14 297.42 395.14 296.75   Z   M 394.59 303.74   C 389.03 298.34 380.48 297.00 374.70 302.92   C 369.26 308.51 368.71 316.98 370.27 324.49   C 373.08 338.00 386.65 338.96 394.69 329.34   Q 395.00 328.97 395.00 328.49   L 395.00 304.72   A 1.38 1.36 -68.2 0 0 394.59 303.74   Z"/>
<ellipse cx="0.00" cy="0.00" transform="translate(344.37,278.24) rotate(0.2)" rx="5.68" ry="5.26"/>
<path d="   M 170.47 300.00   L 164.25 300.00   Q 164.00 300.00 164.00 299.75   L 164.00 294.02   Q 164.00 293.80 164.23 293.79   L 171.01 293.43   Q 171.43 293.41 171.46 292.99   L 172.36 280.33   A 0.35 0.35 0.0 0 1 172.71 280.00   L 178.75 280.00   Q 179.25 280.00 179.25 280.50   L 179.25 292.75   Q 179.25 293.25 179.75 293.25   L 191.75 293.25   A 0.50 0.50 0.0 0 1 192.25 293.75   L 192.25 299.50   A 0.50 0.50 0.0 0 1 191.75 300.00   L 179.76 300.00   Q 179.27 300.00 179.26 300.49   Q 179.22 311.88 179.26 323.23   C 179.29 332.39 180.51 338.58 191.81 334.84   Q 192.08 334.76 192.15 335.03   L 193.64 340.47   Q 193.71 340.71 193.47 340.81   C 185.14 344.16 174.64 343.49 171.77 333.26   Q 171.25 331.40 171.20 326.75   Q 171.07 313.61 170.93 300.46   Q 170.93 300.00 170.47 300.00   Z"/>
<path d="   M 206.62 319.71   Q 206.91 323.16 208.16 326.38   C 212.24 336.90 224.99 338.55 233.65 332.75   Q 234.41 332.23 234.86 333.04   L 236.89 336.70   Q 237.33 337.51 236.56 338.02   C 223.89 346.25 206.43 343.49 200.49 328.33   C 196.15 317.24 198.84 300.77 210.51 294.66   C 220.97 289.19 232.96 292.68 237.53 303.93   Q 240.08 310.22 238.91 318.86   Q 238.85 319.25 238.46 319.25   L 207.04 319.25   Q 206.58 319.25 206.62 319.71   Z   M 207.27 313.84   L 232.13 313.66   A 0.29 0.29 0.0 0 0 232.42 313.37   L 232.42 313.12   A 14.60 12.49 89.6 0 0 219.83 298.61   L 219.37 298.61   A 14.60 12.49 89.6 0 0 206.98 313.30   L 206.98 313.55   A 0.29 0.29 0.0 0 0 207.27 313.84   Z"/>
<path d="   M 313.90 301.43   C 318.57 294.79 323.23 290.32 332.00 292.96   Q 332.45 293.10 332.35 293.57   L 330.97 299.77   Q 330.86 300.29 330.35 300.13   C 322.05 297.49 314.02 304.93 314.01 313.26   Q 313.99 327.39 314.00 341.23   A 0.27 0.27 0.0 0 1 313.73 341.50   L 306.25 341.50   A 0.25 0.25 0.0 0 1 306.00 341.25   L 306.00 293.51   A 0.25 0.25 0.0 0 1 306.25 293.26   L 312.45 293.25   Q 312.66 293.25 312.67 293.45   L 313.29 301.27   Q 313.37 302.19 313.90 301.43   Z"/>
<path d="   M 449.63 299.85   C 455.90 308.51 453.59 319.17 444.29 324.10   Q 437.36 327.77 428.89 324.79   Q 428.48 324.65 428.13 324.91   C 424.76 327.44 423.99 333.07 428.33 334.67   Q 430.01 335.29 432.75 335.30   Q 442.17 335.37 447.12 335.61   C 455.04 336.01 462.00 341.17 459.54 350.03   C 455.65 363.99 433.21 366.39 422.27 360.73   C 414.72 356.83 413.37 347.80 419.90 342.14   Q 421.19 341.02 422.50 339.86   Q 422.90 339.51 422.48 339.18   C 416.63 334.74 417.45 327.26 423.12 323.11   Q 423.73 322.67 423.24 322.10   Q 416.18 313.91 417.97 305.44   C 420.07 295.59 429.87 290.86 439.38 292.55   Q 443.37 293.26 445.20 293.25   Q 452.07 293.24 458.72 293.26   Q 458.99 293.26 458.99 293.53   L 459.00 299.25   Q 459.00 299.50 458.75 299.50   L 449.81 299.50   Q 449.38 299.50 449.63 299.85   Z   M 435.6295 320.7198   A 11.37 10.29 89.7 0 0 445.8599 309.2961   A 11.37 10.29 89.7 0 0 435.5105 297.9802   A 11.37 10.29 89.7 0 0 425.2801 309.4039   A 11.37 10.29 89.7 0 0 435.6295 320.7198   Z   M 427.30 341.88   C 420.81 346.44 421.39 354.36 429.40 356.75   C 436.08 358.75 446.54 358.36 450.85 351.87   Q 454.17 346.85 449.60 343.57   C 448.06 342.46 444.63 342.16 442.73 342.24   Q 435.41 342.55 428.16 341.66   Q 427.69 341.60 427.30 341.88   Z"/>
<path d="   M 472.37 319.70   C 473.44 335.08 487.82 340.36 499.91 332.41   Q 500.16 332.25 500.31 332.51   L 502.93 337.27   Q 503.06 337.51 502.83 337.67   C 492.49 344.64 477.90 344.56 469.82 334.68   C 461.44 324.43 462.45 306.20 472.60 297.27   C 481.29 289.62 495.77 290.34 501.82 300.99   Q 506.12 308.56 504.58 318.91   Q 504.53 319.25 504.20 319.25   L 472.78 319.25   Q 472.34 319.25 472.37 319.70   Z   M 497.76 313.25   C 498.54 292.96 473.88 294.70 472.29 313.24   Q 472.25 313.75 472.76 313.75   L 497.24 313.75   Q 497.74 313.75 497.76 313.25   Z"/>
<path d="   M 139.41 332.96   Q 139.65 333.61 139.86 332.95   L 152.34 293.49   Q 152.42 293.25 152.67 293.25   L 160.18 293.26   A 0.16 0.15 9.3 0 1 160.33 293.46   Q 151.28 319.51 142.28 345.25   C 138.59 355.83 131.79 364.99 119.01 361.26   A 0.42 0.41 -74.8 0 1 118.73 360.76   L 120.17 354.99   A 0.35 0.35 0.0 0 1 120.61 354.74   C 129.81 357.47 133.91 349.12 135.72 341.88   Q 135.83 341.45 135.66 341.04   L 116.61 293.41   Q 116.55 293.25 116.72 293.25   L 124.76 293.25   Q 125.00 293.25 125.09 293.48   L 139.41 332.96   Z"/>
<rect x="340.25" y="293.26" width="8.00" height="48.24" rx="0.29"/>
</g>
</svg>